<svg width="70.000122" height="53.687378" viewBox="0 0 70.0001 53.6874" fill="none" xmlns="http://www.w3.org/2000/svg" xmlns:xlink="http://www.w3.org/1999/xlink">
	<desc>
			Created with Pixso.
	</desc>
	<defs/>
	<path id="Vector" d="M3.49 53.68L59.46 53.68C61.4 53.68 62.96 52.12 62.96 50.18L62.96 45.52C62.96 43.59 61.4 42.02 59.46 42.02L58.3 42.02L58.3 12.94L64.92 6.67C66.46 7.43 68.32 6.97 69.33 5.58C70.33 4.19 70.19 2.28 68.99 1.05C67.79 -0.17 65.89 -0.36 64.47 0.62C63.07 1.6 62.56 3.45 63.29 5L58.3 9.73L58.3 7.04C58.3 5.11 56.73 3.54 54.8 3.54L8.16 3.54C6.23 3.54 4.66 5.11 4.66 7.04L4.66 42.02L3.49 42.02C1.56 42.02 0 43.59 0 45.52L0 50.18C0 52.12 1.56 53.68 3.49 53.68ZM66.46 2.38C67.1 2.38 67.63 2.9 67.63 3.54C67.63 4.19 67.1 4.71 66.46 4.71C65.82 4.71 65.29 4.19 65.29 3.54C65.29 2.9 65.82 2.38 66.46 2.38ZM6.99 7.04C6.99 6.4 7.51 5.87 8.16 5.87L54.8 5.87C55.44 5.87 55.97 6.4 55.97 7.04L55.97 11.94L53.63 14.15L53.63 9.37C53.63 8.73 53.11 8.21 52.47 8.21L10.49 8.21C9.85 8.21 9.32 8.73 9.32 9.37L9.32 38.52C9.32 39.17 9.85 39.69 10.49 39.69L52.47 39.69C53.11 39.69 53.63 39.17 53.63 38.52L53.63 17.36L55.97 15.15L55.97 42.02L6.99 42.02L6.99 7.04ZM17.49 22.2C15.91 22.19 14.52 23.25 14.1 24.77C13.68 26.29 14.33 27.9 15.69 28.71C17.05 29.51 18.77 29.31 19.91 28.21L23.96 30.24C24.43 30.48 25 30.37 25.35 29.98L33.97 20.28L42.44 26.63C42.89 26.97 43.53 26.93 43.94 26.54L51.3 19.57L51.3 37.36L11.66 37.36L11.66 10.54L51.3 10.54L51.3 16.36L43.05 24.17L34.51 17.77C34.03 17.4 33.34 17.47 32.94 17.93L24.2 27.75L20.94 26.12C20.96 25.98 20.98 25.84 20.98 25.7C20.98 23.77 19.42 22.2 17.49 22.2ZM18.65 25.7C18.65 26.34 18.13 26.86 17.49 26.86C16.84 26.86 16.32 26.34 16.32 25.7C16.32 25.05 16.84 24.53 17.49 24.53C18.13 24.53 18.65 25.05 18.65 25.7ZM25.65 44.35L37.31 44.35L37.31 45.52C37.31 46.16 36.79 46.69 36.14 46.69L26.81 46.69C26.17 46.69 25.65 46.16 25.65 45.52L25.65 44.35ZM2.33 45.52C2.33 44.88 2.85 44.35 3.49 44.35L23.32 44.35L23.32 45.52C23.32 47.45 24.88 49.02 26.81 49.02L36.14 49.02C38.07 49.02 39.64 47.45 39.64 45.52L39.64 44.35L59.46 44.35C60.11 44.35 60.63 44.88 60.63 45.52L60.63 50.18C60.63 50.83 60.11 51.35 59.46 51.35L3.49 51.35C2.85 51.35 2.33 50.83 2.33 50.18L2.33 45.52Z" fill="#212121" fill-opacity="1.000000" fill-rule="nonzero"/>
</svg>
