<svg width="13.000000" height="13.000000" viewBox="0 0 13 13" fill="none" xmlns="http://www.w3.org/2000/svg" xmlns:xlink="http://www.w3.org/1999/xlink">
	<desc>
			Created with Pixso.
	</desc>
	<defs/>
	<path id="Vector" d="M11.72 8.86L9.88 8.65C9.44 8.6 9.01 8.75 8.7 9.06L7.36 10.39C5.32 9.35 3.64 7.68 2.6 5.63L3.93 4.29C4.25 3.98 4.4 3.54 4.35 3.1L4.14 1.28C4.05 0.55 3.44 0 2.7 0L1.44 0C0.63 0 -0.05 0.68 0 1.49C0.38 7.67 5.32 12.61 11.5 12.99C12.31 13.04 13 12.36 13 11.55L13 10.29C13 9.56 12.45 8.95 11.72 8.86Z" fill="#212121" fill-opacity="1.000000" fill-rule="nonzero"/>
</svg>
