<svg width="66.957458" height="69.999939" viewBox="0 0 66.9575 69.9999" fill="none" xmlns="http://www.w3.org/2000/svg" xmlns:xlink="http://www.w3.org/1999/xlink">
	<desc>
			Created with Pixso.
	</desc>
	<defs/>
	<path id="Vector" d="M66.95 33.47C66.95 14.98 51.96 -0.01 33.47 0C14.98 0 -0.01 14.99 0 33.48C0 48.05 9.42 60.94 23.29 65.37C23.42 65.41 23.56 65.43 23.7 65.43C23.96 65.43 24.22 65.36 24.45 65.22C24.74 65.05 24.96 64.77 25.07 64.44L33.52 37.65C35.83 37.64 37.7 35.75 37.69 33.44C37.67 31.13 35.79 29.27 33.48 29.28C32.86 29.28 32.24 29.42 31.69 29.7L20.52 18.53C19.96 17.99 19.08 18.01 18.54 18.56C18.02 19.1 18.02 19.96 18.54 20.5L29.71 31.67C28.85 33.42 29.34 35.53 30.88 36.73L22.83 62.26C6.9 56.4 -1.25 38.74 4.62 22.82C10.48 6.9 28.14 -1.26 44.06 4.61C59.98 10.47 68.13 28.13 62.27 44.05C59.4 51.83 53.52 58.12 45.95 61.49L45.08 57.39C44.92 56.64 44.18 56.16 43.42 56.32C43.18 56.37 42.96 56.48 42.78 56.64L34.39 64.14C33.81 64.65 33.76 65.53 34.27 66.11C34.44 66.29 34.65 66.43 34.89 66.51L45.61 69.93C46.34 70.16 47.13 69.76 47.36 69.03C47.44 68.79 47.45 68.55 47.4 68.31L46.55 64.29C58.94 59.06 66.98 46.91 66.95 33.47ZM33.47 32.07C34.24 32.07 34.87 32.7 34.87 33.47C34.87 34.24 34.24 34.86 33.47 34.86C32.7 34.86 32.08 34.24 32.08 33.47C32.08 32.7 32.7 32.07 33.47 32.07ZM38.07 64.59L42.85 60.32L44.16 66.54L38.07 64.59Z" fill="#212121" fill-opacity="1.000000" fill-rule="nonzero"/>
</svg>
