<svg aria-hidden="true" style="position: absolute; width: 0; height: 0; overflow: hidden;" version="1.1" xmlns="http://www.w3.org/2000/svg" xmlns:xlink="http://www.w3.org/1999/xlink">
<defs>
<symbol id="smartphone" viewBox="0 0 20 32">
<path d="M17 0h-14c-1.66 0-3 1.34-3 3v26c0 1.64 1.34 3 3 3h14c1.64 0 3-1.36 3-3v-26c0-1.66-1.36-3-3-3zM3 2h14c0.54 0 1 0.44 1 1v21h-16v-21c0-0.56 0.44-1 1-1zM17 30h-14c-0.56 0-1-0.46-1-1v-3h16v3c0 0.54-0.46 1-1 1z"></path>
<path d="M4.7 27.46c0.38 0.38 0.38 0.96 0 1.32-0.4 0.38-1.020 0.38-1.42 0-0.176-0.166-0.285-0.4-0.285-0.66s0.11-0.494 0.285-0.66l0-0c0.4-0.36 1.020-0.36 1.42 0z"></path>
</symbol>
<symbol id="envelope" viewBox="0 0 43 32">
<path d="M38.667 0h-34.667c-2.213 0-4 1.787-4 4v24c0 2.187 1.787 4 4 4h34.667c2.187 0 4-1.813 4-4v-24c0-2.213-1.813-4-4-4zM38.667 2.667c0.16 0 0.347 0.027 0.507 0.080l-17.84 15.467-17.867-15.467c0.16-0.053 0.347-0.080 0.533-0.080h34.667zM38.667 29.333h-34.667c-0.747 0-1.333-0.613-1.333-1.333v-22.427l17.787 15.413c0.24 0.213 0.56 0.347 0.88 0.347 0.293 0 0.613-0.133 0.853-0.347l17.813-15.413v22.427c0 0.72-0.613 1.333-1.333 1.333z"></path>
</symbol>
<symbol id="antena" viewBox="0 0 30 32">
<path d="M29.701 22.094l-8.443-8.503 0.937-4.617c0.242 0.096 0.498 0.146 0.759 0.146h0.005c1.193 0.014 2.171-0.942 2.185-2.135 0.014-1.189-0.942-2.167-2.135-2.181-0.008-0-0.017-0-0.026-0-1.182 0-2.141 0.951-2.155 2.129v0.001c-0.005 0.256 0.037 0.512 0.123 0.75l-4.96 0.608-8.091-8.137c-0.095-0.096-0.227-0.155-0.373-0.155-0.001 0-0.001 0-0.002 0h0c-0.142 0-0.274 0.055-0.375 0.151l-1.513 1.504c-0.206 0.21-0.206 0.549 0 0.754l0.814 0.827c-3.154 5.797-2.13 12.978 2.519 17.664 0.046 0.041 0.091 0.073 0.146 0.096-0.032 0.183-0.050 0.366-0.050 0.549v6.185h-6.4c-1.472 0.004-2.664 1.197-2.665 2.67v1.065c0 0.293 0.238 0.535 0.53 0.535h24.535c0.293 0 0.535-0.242 0.535-0.535v-1.065c-0.005-1.472-1.197-2.665-2.669-2.67h-6.4v-2.743c1.001 0.21 2.025 0.32 3.049 0.32 2.459 0 4.878-0.613 7.040-1.783l0.818 0.823c0.101 0.101 0.233 0.16 0.375 0.16s0.274-0.055 0.375-0.155l1.513-1.504c0.206-0.206 0.206-0.544 0-0.754zM22.209 6.231c0.416-0.416 1.093-0.411 1.509 0.005s0.411 1.093-0.005 1.509c-0.201 0.197-0.471 0.311-0.754 0.311-0.589-0.005-1.065-0.484-1.065-1.074 0 0 0-0 0-0v0c0.005-0.279 0.114-0.553 0.315-0.75zM20.952 9.737l-0.599 2.944-1.175-1.184 1.774-1.76zM20.348 8.832l-1.92 1.911-1.486-1.495 3.406-0.416zM22.931 28.8c0.882 0 1.6 0.713 1.6 1.6v0.53h-23.465v-0.53c0-0.887 0.718-1.6 1.6-1.6h20.265zM15.466 26.665v1.065h-5.335v-1.065h5.335zM10.131 25.6v-4.055c0-1.294 1.198-2.345 2.67-2.345 1.467 0 2.665 1.051 2.665 2.345v4.055h-5.335zM16.531 23.904v-2.359c0-1.883-1.673-3.415-3.73-3.415-0.017-0-0.037-0-0.058-0-1.353 0-2.542 0.707-3.215 1.772l-0.009 0.016c-4.059-4.274-4.974-10.647-2.281-15.886l18.601 18.706c-1.823 0.948-3.98 1.504-6.268 1.504-1.077 0-2.126-0.123-3.133-0.357l0.093 0.018zM27.823 23.218l-0.754-0.754-20.306-20.425 0.759-0.754 7.931 7.982c0.005 0 0.009 0.005 0.009 0.009l13.115 13.189-0.754 0.754z"></path>
</symbol>
<symbol id="astronaut" viewBox="0 0 32 32">
<path d="M31.973 4.521c-0.064-0.192-0.229-0.334-0.43-0.361l-1.911-0.279-0.855-1.733c-0.178-0.361-0.777-0.361-0.955 0l-0.855 1.733-1.911 0.279c-0.201 0.027-0.37 0.169-0.434 0.361-0.059 0.192-0.009 0.407 0.137 0.549l1.381 1.349-0.325 1.902c-0.032 0.201 0.050 0.402 0.21 0.521 0.169 0.119 0.384 0.137 0.562 0.041l1.71-0.901 1.71 0.901c0.078 0.041 0.165 0.059 0.247 0.059 0.002 0 0.003 0 0.005 0 0.292 0 0.529-0.237 0.529-0.529 0-0.033-0.003-0.065-0.009-0.096l0 0.003-0.325-1.902 1.381-1.349c0.146-0.142 0.197-0.357 0.137-0.549zM29.509 5.847c-0.123 0.123-0.183 0.302-0.151 0.475l0.187 1.111-1.001-0.526c-0.078-0.041-0.16-0.059-0.247-0.059s-0.169 0.018-0.247 0.059l-1.001 0.526 0.192-1.111c0.027-0.174-0.027-0.352-0.155-0.475l-0.809-0.786 1.12-0.165c0.174-0.023 0.325-0.133 0.402-0.293l0.498-1.010 0.498 1.010c0.078 0.16 0.229 0.27 0.402 0.293l1.12 0.165-0.809 0.786z"></path>
<path d="M25.065 20.521h1.065v1.065h-1.065v-1.065zM25.065 22.651h1.065v1.070h-1.065v-1.070zM26.13 21.586h1.070v1.065h-1.070v-1.065zM24 21.586h1.065v1.065h-1.065v-1.065zM21.33 26.386h1.070v1.065h-1.070v-1.065zM21.33 28.521h1.070v1.065h-1.070v-1.065zM22.4 27.451h1.065v1.070h-1.065v-1.070zM20.265 27.451h1.065v1.070h-1.065v-1.070zM14.93 24.251h1.070v1.070h-1.070v-1.070zM14.93 26.386h1.070v1.065h-1.070v-1.065zM16 25.321h1.065v1.065h-1.065v-1.065zM13.865 25.321h1.065v1.065h-1.065v-1.065zM4.795 6.121h1.070v1.065h-1.070v-1.065zM4.795 8.251h1.070v1.070h-1.070v-1.070zM5.865 7.186h1.065v1.065h-1.065v-1.065zM3.73 7.186h1.065v1.065h-1.065v-1.065z"></path>
<path d="M24.713 14.158c-0.288-0.389-0.709-0.64-1.189-0.704-0.48-0.069-0.955 0.055-1.339 0.352l-1.253 0.96-1.897 1.417-1.358-0.544c2.418-1.083 4.114-3.506 4.114-6.318 0-3.822-3.122-6.935-6.962-6.935s-6.962 3.113-6.962 6.935c0 1.385 0.416 2.674 1.12 3.758l-2.77-0.023c-0.005 0-0.014 0.005-0.023 0.005-0.050 0-0.105 0.014-0.155 0.032-0.009 0.005-0.023 0.005-0.037 0.014-0.005 0-0.014 0-0.018 0.005l-3.237 1.595-1.893 0.91c-0.018 0.009-0.041 0.023-0.064 0.037-0.482 0.324-0.794 0.867-0.794 1.484 0 0.296 0.072 0.575 0.2 0.821l-0.005-0.010c0.224 0.43 0.599 0.745 1.056 0.891 0.178 0.055 0.361 0.082 0.539 0.082 0.293 0 0.581-0.073 0.841-0.21l1.39-0.741 2.263-1.17 1.358-0.005-6.784 6.747c-0.315 0.315-0.489 0.731-0.489 1.179 0 0.443 0.174 0.864 0.489 1.179 0.303 0.3 0.719 0.485 1.179 0.485s0.877-0.185 1.18-0.485l-0 0 1.317-1.312 1.742-1.298 0.901 0.896-3.104 3.090c-0.315 0.315-0.489 0.731-0.489 1.179 0 0.443 0.174 0.859 0.489 1.175 0.325 0.325 0.754 0.489 1.179 0.489 0.43 0 0.855-0.165 1.179-0.489l1.339-1.33 2.144-2.135 1.010-1.001-0.005-0.005c0.009-0.005 0.018-0.009 0.023-0.014l5.166-5.659 3.47 0.494c0.027 0.005 0.050 0.005 0.078 0.005 0.064 0 0.128-0.014 0.187-0.037 0.018-0.009 0.032-0.014 0.050-0.023l0.055-0.027 3.214-2.135c0.014-0.009 0.018-0.018 0.032-0.027 0.009-0.014 0.027-0.014 0.037-0.027l1.271-1.189c0.348-0.326 0.565-0.789 0.565-1.302 0-0.4-0.132-0.769-0.354-1.066l0.003 0.005zM2.13 17.769c-0.099 0.053-0.216 0.084-0.34 0.084-0.279 0-0.522-0.156-0.645-0.386l-0.002-0.004c-0.16-0.315-0.069-0.695 0.215-0.905l1.312-0.631 0.315 0.923 0.137 0.389-0.992 0.53zM5.627 15.941l-1.55 0.8-0.256-0.745-0.183-0.539 2.025-1.001-0.037 1.486zM20.727 9.321c0 0.919-0.219 1.783-0.599 2.56l-4.183-1.902c-0.046-0.571-0.343-1.074-0.791-1.385l1.467-4.864c2.377 0.759 4.105 2.976 4.105 5.591zM8.937 9.321c0-3.237 2.642-5.87 5.893-5.87 0.251 0 0.503 0.023 0.745 0.055l-1.431 4.754c-0.018 0-0.037-0.009-0.059-0.009-1.033 0-1.87 0.841-1.87 1.87s0.837 1.865 1.87 1.865c0.695 0 1.298-0.384 1.618-0.946l3.863 1.755c-1.074 1.449-2.793 2.391-4.736 2.391-3.25 0-5.893-2.633-5.893-5.865zM14.894 10.121c0 0.439-0.361 0.8-0.809 0.8-0.443 0-0.805-0.361-0.805-0.8 0-0.443 0.361-0.8 0.805-0.8 0.448 0 0.809 0.357 0.809 0.8zM2.464 25.143c-0.238 0.233-0.622 0.233-0.855 0-0.11-0.106-0.178-0.254-0.178-0.419 0-0.001 0-0.001 0-0.002v0c0-0.16 0.064-0.311 0.178-0.421l0.96-0.96 0.85 0.846-0.955 0.955zM5.678 28.878c-0.238 0.233-0.622 0.233-0.855 0-0.114-0.114-0.178-0.265-0.178-0.421 0-0.16 0.064-0.311 0.178-0.425l0.96-0.955 0.855 0.846-0.96 0.955zM9.157 25.408l-1.765 1.76-0.402-0.398-0.448-0.448 1.76-1.755h0.005c0.037-0.041 0.064-0.091 0.087-0.137 0.009-0.014 0.023-0.027 0.027-0.041 0.018-0.041 0.018-0.082 0.027-0.128 0-0.023 0.014-0.046 0.014-0.073 0-0.037-0.014-0.069-0.023-0.105-0.005-0.032-0.005-0.064-0.018-0.096-0.018-0.050-0.055-0.091-0.091-0.137-0.009-0.009-0.014-0.027-0.023-0.037-0.005 0-0.005 0-0.005-0.005l-1.605-1.6c-0.018-0.014-0.041-0.023-0.059-0.037-0.027-0.023-0.055-0.041-0.087-0.059-0.032-0.014-0.059-0.023-0.091-0.032-0.037-0.009-0.069-0.014-0.105-0.018-0.032 0-0.064 0-0.096 0.005-0.037 0.005-0.069 0.009-0.101 0.018-0.037 0.014-0.064 0.027-0.096 0.046-0.018 0.014-0.041 0.018-0.059 0.032l-1.774 1.321-0.901-0.896 2.395-2.386 4.361 4.288-0.928 0.919zM15.977 18.391c-0.014 0-0.032 0.005-0.046 0.005-0.037-0.005-0.078 0-0.114 0.005-0.032 0.005-0.059 0.014-0.087 0.023-0.037 0.014-0.069 0.027-0.101 0.046-0.027 0.018-0.055 0.037-0.082 0.064-0.014 0.009-0.027 0.014-0.037 0.027l-4.699 5.147-4.329-4.256 2.834-2.821c0.097-0.096 0.157-0.23 0.157-0.377 0-0.294-0.238-0.533-0.533-0.533-0.001 0-0.002 0-0.004 0l-2.222 0.014 0.027-1.609 3.104 0.027c1.266 1.294 3.031 2.098 4.983 2.098 0.439 0 0.864-0.046 1.28-0.119 0.041 0.032 0.078 0.064 0.128 0.082l2.409 0.96 0.155 0.759 0.178 0.887-3.003-0.43zM20.018 18.569l-0.315-1.559 1.449-1.079 0.379 0.503 0.567 0.754-2.080 1.381zM23.771 15.739l-0.837 0.786-0.933-1.239 0.832-0.635c0.155-0.119 0.352-0.169 0.544-0.142 0.352 0.049 0.619 0.347 0.619 0.708 0 0.206-0.087 0.391-0.226 0.521l-0 0z"></path>
<path d="M13.6 18.542l-2.144-2.135c-0.206-0.206-0.544-0.206-0.75 0l-2.144 2.135c-0.101 0.101-0.155 0.238-0.155 0.379s0.055 0.279 0.155 0.375l2.144 2.135c0.101 0.105 0.238 0.155 0.375 0.155s0.274-0.050 0.375-0.155l2.144-2.135c0.101-0.096 0.155-0.233 0.155-0.375s-0.055-0.279-0.155-0.379zM11.081 20.302l-1.385-1.381 1.385-1.381 1.385 1.381-1.385 1.381zM17.161 5.070l-0.256 1.033c0.069 0.018 1.737 0.453 1.737 2.149h1.065c0-2.016-1.664-2.962-2.546-3.182z"></path>
<path d="M18.642 9.321h1.065v1.065h-1.065v-1.065z"></path>
</symbol>
<symbol id="graphik" viewBox="0 0 42 32">
<path d="M2.080 32h33.361c1.156 0 2.086-0.93 2.086-2.086v-2.778c0-1.15-0.93-2.086-2.086-2.086h-0.691v-17.333l3.946-3.737c0.918 0.453 2.027 0.179 2.629-0.65 0.596-0.829 0.513-1.967-0.203-2.7-0.381-0.389-0.912-0.629-1.499-0.629-0.447 0-0.861 0.14-1.202 0.378l0.007-0.005c-0.834 0.584-1.138 1.687-0.703 2.611l-2.974 2.819v-1.603c0-1.15-0.936-2.086-2.086-2.086h-27.8c-1.15 0-2.086 0.936-2.086 2.086v20.85h-0.697c-1.15 0-2.080 0.936-2.080 2.086v2.778c0 1.156 0.93 2.086 2.080 2.086zM39.613 1.423c0.381 0 0.697 0.31 0.697 0.691 0 0.387-0.316 0.697-0.697 0.697s-0.697-0.31-0.697-0.697c0-0.381 0.316-0.691 0.697-0.691zM4.166 4.201c0-0.381 0.31-0.697 0.697-0.697h27.8c0.381 0 0.697 0.316 0.697 0.697v2.921l-1.395 1.317v-2.849c0-0.381-0.31-0.691-0.691-0.691h-25.022c-0.381 0-0.697 0.31-0.697 0.691v17.375c0 0.387 0.316 0.697 0.697 0.697h25.022c0.381 0 0.691-0.31 0.691-0.697v-12.612l1.395-1.317v16.016h-29.194v-20.85zM10.425 13.237c-0.003-0-0.007-0-0.011-0-1.152 0-2.086 0.934-2.086 2.086s0.934 2.086 2.086 2.086c0.566 0 1.079-0.225 1.454-0.591l-0 0 2.414 1.21c0.28 0.143 0.62 0.078 0.829-0.155l5.138-5.782 5.049 3.785c0.268 0.203 0.65 0.179 0.894-0.054l4.387-4.154v10.604h-23.627v-15.986h23.627v3.469l-4.917 4.655-5.090-3.815c-0.286-0.221-0.697-0.179-0.936 0.095l-5.209 5.853-1.943-0.972c0.012-0.083 0.024-0.167 0.024-0.25 0-1.15-0.93-2.086-2.080-2.086zM11.116 15.323c0 0.381-0.31 0.691-0.691 0.691-0.001 0-0.002 0-0.003 0-0.383 0-0.694-0.311-0.694-0.694s0.311-0.694 0.694-0.694c0.383 0 0.694 0.311 0.694 0.694 0 0.001 0 0.002 0 0.003v-0zM15.289 26.439h6.95v0.697c0 0.381-0.31 0.697-0.697 0.697h-5.561c-0.381 0-0.691-0.316-0.691-0.697v-0.697zM1.389 27.137c0-0.381 0.31-0.697 0.691-0.697h11.82v0.697c0 1.15 0.93 2.086 2.080 2.086h5.561c1.15 0 2.086-0.936 2.086-2.086v-0.697h11.814c0.387 0 0.697 0.316 0.697 0.697v2.778c0 0.387-0.31 0.697-0.697 0.697h-33.361c-0.381 0-0.691-0.31-0.691-0.697v-2.778z"></path>
</symbol>
<symbol id="timer" viewBox="0 0 31 32">
<path d="M30.607 15.301c0-8.453-6.853-15.305-15.305-15.301-8.453 0-15.305 6.853-15.301 15.305 0 6.661 4.306 12.553 10.647 14.578 0.056 0.017 0.121 0.027 0.188 0.027 0.29 0 0.536-0.187 0.625-0.448l0.001-0.005 3.863-12.247c1.056-0.005 1.911-0.869 1.906-1.925-0.009-1.052-0.863-1.902-1.917-1.902-0.003 0-0.005 0-0.008 0h0c-0.283 0-0.567 0.064-0.818 0.192l-5.106-5.106c-0.256-0.247-0.658-0.238-0.905 0.014-0.238 0.247-0.238 0.64 0 0.887l5.106 5.106c-0.121 0.242-0.192 0.527-0.192 0.828 0 0.602 0.283 1.138 0.723 1.482l0.004 0.003-3.68 11.671c-7.282-2.679-11.008-10.752-8.325-18.030 2.679-7.278 10.752-11.008 18.030-8.325 7.278 2.679 11.003 10.752 8.325 18.030-1.344 3.581-4.002 6.405-7.373 7.937l-0.088 0.036-0.398-1.874c-0.073-0.343-0.411-0.562-0.759-0.489-0.11 0.023-0.21 0.073-0.293 0.146l-3.835 3.429c-0.265 0.233-0.288 0.635-0.055 0.901 0.078 0.082 0.174 0.146 0.283 0.183l4.901 1.563c0.334 0.105 0.695-0.078 0.8-0.411 0.037-0.11 0.041-0.219 0.018-0.329l-0.389-1.838c5.526-2.376 9.326-7.773 9.326-14.057 0-0.011 0-0.022-0-0.034v0.002zM15.301 14.661c0.352 0 0.64 0.288 0.64 0.64s-0.288 0.635-0.64 0.635c-0.352 0-0.635-0.283-0.635-0.635s0.283-0.64 0.635-0.64zM17.404 29.527l2.185-1.952 0.599 2.843-2.784-0.891z"></path>
</symbol>
<symbol id="tagline" viewBox="0 0 68 32">
<path d="M34.545 15.037c-0.321-0.43-0.481-0.94-0.437-1.45v-2.105c0-0.641 0.146-1.129 0.437-1.464s0.794-0.503 1.501-0.503c0.67 0 1.144 0.146 1.428 0.43 0.306 0.364 0.452 0.809 0.415 1.253v0.495h-1.195v-0.495c0.007-0.168-0.007-0.328-0.036-0.495-0.017-0.117-0.078-0.217-0.166-0.283l-0.001-0.001c-0.108-0.074-0.241-0.118-0.385-0.118-0.016 0-0.032 0.001-0.047 0.002l0.002-0c-0.168-0.007-0.328 0.029-0.459 0.117-0.102 0.087-0.175 0.204-0.197 0.321-0.036 0.175-0.051 0.35-0.051 0.525v2.55c-0.015 0.24 0.036 0.488 0.153 0.714 0.066 0.073 0.146 0.131 0.24 0.175 0.095 0.036 0.204 0.051 0.313 0.036 0.153 0.015 0.299-0.029 0.423-0.117 0.092-0.075 0.156-0.182 0.175-0.303l0-0.003c0.029-0.168 0.044-0.342 0.036-0.51v-0.517h1.195v0.474c0.036 0.466-0.109 0.925-0.408 1.319-0.277 0.313-0.743 0.466-1.435 0.466-0.685 0-1.209-0.168-1.501-0.51zM39.521 15.058c-0.299-0.328-0.452-0.809-0.452-1.435v-2.207c0-0.627 0.153-1.1 0.452-1.421 0.306-0.321 0.809-0.481 1.515-0.481s1.209 0.16 1.508 0.481c0.299 0.321 0.459 0.794 0.459 1.421v2.207c0 0.619-0.16 1.1-0.466 1.428s-0.801 0.495-1.501 0.495c-0.692 0-1.209-0.168-1.515-0.488zM41.597 14.527c0.102-0.204 0.153-0.43 0.138-0.656v-2.703c0.015-0.219-0.029-0.444-0.138-0.641-0.062-0.080-0.147-0.141-0.244-0.174l-0.004-0.001c-0.072-0.030-0.155-0.048-0.243-0.048-0.025 0-0.049 0.001-0.073 0.004l0.003-0c-0.109-0.007-0.219 0-0.313 0.044-0.102 0.036-0.189 0.095-0.248 0.175-0.109 0.197-0.16 0.415-0.146 0.641v2.717c-0.015 0.226 0.036 0.452 0.146 0.656 0.073 0.066 0.153 0.124 0.255 0.16 0.095 0.036 0.197 0.058 0.306 0.058 0.102 0 0.211-0.022 0.306-0.058s0.182-0.095 0.255-0.16v-0.015zM44.438 9.58h1.289l0.962 4.080 0.991-4.080h1.253l0.124 5.886h-0.925l-0.095-4.087-0.954 4.087h-0.743l-0.991-4.101-0.095 4.101h-0.932l0.117-5.886zM50.507 9.58h2.003c1.151 0 1.734 0.561 1.734 1.676 0 1.064-0.612 1.595-1.829 1.595h-0.685v2.615h-1.231l0.007-5.886zM52.219 12.093c0.117 0.015 0.24 0.007 0.364-0.029 0.117-0.029 0.226-0.080 0.313-0.153 0.146-0.197 0.204-0.43 0.175-0.663 0.007-0.182-0.007-0.364-0.058-0.539-0.017-0.062-0.047-0.116-0.088-0.161l0 0c-0.045-0.047-0.098-0.087-0.157-0.115l-0.003-0.001c-0.168-0.073-0.357-0.102-0.546-0.095h-0.481v1.756h0.481zM56.022 9.58h1.333l1.362 5.886h-1.151l-0.27-1.355h-1.187l-0.277 1.355h-1.173l1.362-5.886zM57.158 13.427l-0.459-2.47-0.466 2.47h0.925zM59.817 9.58h0.867l1.661 3.358v-3.358h1.027v5.886h-0.823l-1.668-3.504v3.504h-1.064v-5.886zM65.776 13.223l-1.377-3.635h1.158l0.845 2.338 0.787-2.338h1.136l-1.362 3.635v2.244h-1.187v-2.244zM36.454 18.038v0.306h-1.005v2.389h-0.423v-2.389h-1.020v-0.306h2.448zM39.623 20.733h-0.328c-0.036 0.007-0.066-0.007-0.095-0.022-0.024-0.015-0.042-0.038-0.051-0.065l-0-0.001-0.291-0.641h-1.399l-0.299 0.641c-0.007 0.029-0.022 0.058-0.044 0.073-0.022 0.022-0.058 0.029-0.087 0.029h-0.328l1.238-2.695h0.43l1.253 2.681zM37.569 19.735h1.173l-0.495-1.1c-0.036-0.080-0.066-0.168-0.095-0.255-0.015 0.051-0.029 0.102-0.044 0.146l-0.044 0.109-0.495 1.1zM41.758 20.471c0.073 0.007 0.153 0.007 0.233 0 0.066-0.007 0.131-0.015 0.197-0.029 0.058-0.015 0.117-0.029 0.175-0.051s0.109-0.044 0.168-0.066v-0.605h-0.495c-0.015 0-0.022-0.007-0.036-0.007-0.015-0.007-0.022-0.007-0.029-0.015l-0.022-0.022c0-0.015-0.007-0.022-0.007-0.029v-0.211h0.962v1.034c-0.080 0.051-0.16 0.095-0.248 0.131s-0.175 0.066-0.27 0.095c-0.102 0.022-0.211 0.044-0.313 0.051-0.117 0.015-0.24 0.022-0.357 0.022-0.219 0-0.43-0.036-0.627-0.102-0.189-0.066-0.357-0.16-0.495-0.284s-0.248-0.27-0.321-0.43c-0.080-0.175-0.117-0.364-0.117-0.554 0-0.197 0.036-0.386 0.117-0.568 0.073-0.16 0.175-0.306 0.321-0.43 0.138-0.117 0.306-0.211 0.495-0.277 0.211-0.066 0.437-0.102 0.663-0.102 0.109 0 0.226 0.007 0.342 0.022 0.102 0.015 0.197 0.044 0.291 0.073 0.087 0.029 0.175 0.066 0.248 0.109 0.080 0.036 0.153 0.087 0.219 0.138l-0.124 0.168c-0.008 0.016-0.021 0.028-0.036 0.036l-0 0c-0.015 0.007-0.036 0.015-0.058 0.015-0.029 0-0.051-0.007-0.073-0.022-0.047-0.019-0.088-0.041-0.126-0.067l0.002 0.002c-0.051-0.029-0.109-0.051-0.168-0.073-0.073-0.022-0.146-0.044-0.226-0.058-0.102-0.015-0.211-0.022-0.313-0.022-0.168-0.007-0.328 0.022-0.481 0.073-0.138 0.044-0.262 0.117-0.364 0.211-0.102 0.102-0.175 0.211-0.226 0.335-0.109 0.291-0.109 0.612 0 0.903 0.051 0.124 0.138 0.24 0.248 0.335 0.102 0.095 0.226 0.168 0.357 0.219 0.16 0.044 0.328 0.066 0.495 0.051zM45.699 20.427h1.355v0.306h-1.77v-2.695h0.423l-0.007 2.389zM48.46 20.733h-0.43v-2.695h0.43v2.695zM50.033 18.053c0.022 0.007 0.044 0.029 0.058 0.051l1.814 2.032c-0.003-0.014-0.005-0.031-0.005-0.047s0.002-0.033 0.006-0.049l-0 0.001v-2.011h0.364v2.703h-0.211c-0.029 0.007-0.058 0-0.087-0.015-0.029-0.007-0.051-0.029-0.073-0.051l-1.807-2.032v2.098h-0.35v-2.695h0.219c0.022 0 0.051 0.007 0.073 0.015zM55.388 18.038v0.299h-1.501v0.889h1.217v0.284h-1.217v0.925h1.501v0.299h-1.938v-2.695h1.938zM11.044 1.37l18.788 4.611v16.143l-18.788-4.611v-16.143zM9.835 0v18.3l21.199 5.201v-18.307l-21.199-5.194z"></path>
<path d="M21.199 31.996l-21.199-5.201v-18.3l21.199 5.194v18.307z"></path>
<path d="M10.184 1.166l18.548 4.546-7.882 6.811-18.555-4.546 7.89-6.811zM9.835 0l-9.835 8.494 21.199 5.194 9.835-8.494-21.199-5.194zM22.394 30.969l8.64-7.467-8.64-2.12v9.587z"></path>
</symbol>
<symbol id="foster" viewBox="0 0 67 32">
<path d="M10.353 9.772c1.891 0 3.419 1.363 3.419 3.041s-1.528 3.041-3.419 3.041-3.419-1.363-3.419-3.041 1.528-3.041 3.419-3.041z"></path>
<path d="M35.604 8.795c-0.008-2.332-1.048-4.562-2.907-6.216-1.851-1.647-4.365-2.576-6.996-2.576-2.624 0-5.137 0.93-6.996 2.576-1.851 1.654-2.899 3.884-2.907 6.216v12.866s19.807-1.962 19.807-12.858v-0.008zM0 25.876c0 1.623 0.725 3.183 2.017 4.325 1.292 1.15 3.041 1.796 4.869 1.804 1.828-0.008 3.577-0.654 4.861-1.796 1.292-1.15 2.025-2.702 2.025-4.325v-8.95s-13.772 1.363-13.772 8.942zM6.886 27.483c-0.355 0-0.709-0.095-1.001-0.268-0.299-0.181-0.528-0.425-0.67-0.725-0.085-0.181-0.134-0.393-0.134-0.617 0-0.108 0.011-0.213 0.033-0.314l-0.002 0.010c0.071-0.315 0.244-0.599 0.496-0.819 0.252-0.228 0.575-0.378 0.922-0.441 0.355-0.063 0.717-0.032 1.048 0.087 0.323 0.126 0.607 0.331 0.804 0.591 0.197 0.268 0.307 0.575 0.307 0.89 0 0.213-0.047 0.425-0.134 0.622-0.203 0.403-0.546 0.711-0.965 0.863l-0.012 0.004c-0.221 0.079-0.457 0.126-0.693 0.126v-0.008z"></path>
<path d="M23.959 27.239q0.181-0.37 0.181-0.867v-0.15q0-0.496-0.181-0.875-0.134-0.284-0.355-0.473-0.071-0.055-0.15-0.11-0.071-0.039-0.142-0.071-0.276-0.126-0.607-0.126t-0.607 0.126q-0.071 0.032-0.142 0.071-0.079 0.055-0.15 0.11-0.221 0.189-0.355 0.473-0.181 0.378-0.181 0.875v0.165q0.008 0.481 0.189 0.859 0.126 0.268 0.339 0.449 0.079 0.071 0.165 0.126 0.071 0.039 0.15 0.079 0.276 0.118 0.599 0.118 0.339 0 0.615-0.134 0.071-0.032 0.134-0.071 0.087-0.055 0.173-0.126 0.197-0.181 0.323-0.449zM26.323 26.877q0.063 0.087 0.063 0.213 0 0.102-0.047 0.181-0.032 0.055-0.095 0.102-0.134 0.102-0.386 0.102-0.386 0-0.552-0.197-0.11-0.134-0.11-0.362h-0.693q0 0.244 0.095 0.441 0.032 0.071 0.071 0.134l0.008 0.008q0.165 0.236 0.481 0.378t0.701 0.142q0.559 0 0.89-0.244 0.142-0.11 0.221-0.252 0.11-0.189 0.11-0.433 0-0.221-0.087-0.402-0.063-0.142-0.181-0.252-0.276-0.268-0.867-0.441-0.315-0.102-0.481-0.213-0.118-0.079-0.15-0.181-0.016-0.047-0.016-0.095 0-0.087 0.032-0.15 0.039-0.079 0.11-0.134 0.142-0.102 0.394-0.102 0.26 0 0.41 0.126 0.032 0.032 0.063 0.071 0.079 0.118 0.079 0.291h0.693q0-0.213-0.071-0.386-0.039-0.079-0.087-0.158-0.032-0.047-0.071-0.095-0.142-0.173-0.362-0.276-0.284-0.126-0.646-0.126-0.355 0-0.646 0.118-0.284 0.118-0.441 0.331-0.063 0.087-0.095 0.189-0.055 0.142-0.055 0.299t0.047 0.299q0.126 0.315 0.528 0.536 0.205 0.11 0.567 0.228t0.496 0.221q0.047 0.039 0.079 0.087zM53.362 26.877q0.063 0.087 0.063 0.213 0 0.102-0.047 0.181-0.032 0.055-0.095 0.102-0.142 0.102-0.386 0.102-0.386 0-0.551-0.197-0.11-0.134-0.11-0.362h-0.693q0 0.244 0.087 0.441 0.032 0.071 0.079 0.134l0.008 0.008q0.165 0.236 0.473 0.378 0.323 0.142 0.709 0.142 0.559 0 0.89-0.244 0.142-0.11 0.221-0.252 0.11-0.189 0.11-0.433 0-0.221-0.087-0.402-0.071-0.142-0.181-0.252-0.276-0.268-0.867-0.441-0.315-0.102-0.481-0.213-0.118-0.079-0.158-0.181-0.008-0.047-0.008-0.095 0-0.087 0.032-0.15 0.032-0.079 0.11-0.134 0.134-0.102 0.394-0.102t0.402 0.126q0.039 0.032 0.071 0.071 0.079 0.118 0.079 0.291h0.693q0-0.213-0.079-0.386-0.032-0.079-0.079-0.158-0.032-0.047-0.071-0.095-0.142-0.173-0.362-0.276-0.284-0.126-0.646-0.126-0.355 0-0.646 0.118-0.284 0.118-0.441 0.331-0.063 0.087-0.095 0.189-0.055 0.142-0.055 0.299t0.047 0.299q0.126 0.315 0.52 0.536 0.213 0.11 0.575 0.228 0.355 0.118 0.496 0.221 0.047 0.039 0.079 0.087zM19.484 26.601h1.324v-0.559h-1.324v-0.867h1.489v-0.559h-2.182v3.356h0.693v-1.371zM29.049 25.175h1.032v-0.559h-2.742v0.559h1.016v2.797h0.693v-2.797zM31.168 26.514h1.324v-0.536h-1.324v-0.804h1.552v-0.559h-2.245v3.356h2.253v-0.552h-1.56v-0.906zM33.823 26.743h0.551l0.63 1.229h0.741v-0.032l-0.725-1.371q0.299-0.134 0.449-0.37 0.15-0.228 0.15-0.567t-0.158-0.575q-0.063-0.095-0.165-0.181-0.323-0.26-0.914-0.26h-1.253v3.356h0.693v-1.229zM38.014 27.972v-1.182h0.607q0.599 0 0.938-0.284 0.118-0.102 0.197-0.228 0.142-0.228 0.142-0.552 0-0.26-0.095-0.473-0.024-0.055-0.055-0.11-0.047-0.071-0.11-0.142-0.134-0.15-0.339-0.252-0.284-0.134-0.662-0.134h-1.316v3.356h0.693zM41.063 26.514h1.331v-0.536h-1.331v-0.804h1.56v-0.559h-2.253v3.356h2.253v-0.552h-1.56v-0.906zM44.577 25.175h1.032v-0.559h-2.742v0.559h1.016v2.797h0.693v-2.797zM46.697 26.514h1.331v-0.536h-1.331v-0.804h1.552v-0.559h-2.245v3.356h2.253v-0.552h-1.56v-0.906zM49.352 26.743h0.551l0.63 1.229h0.748v-0.032l-0.733-1.371q0.307-0.134 0.457-0.37 0.15-0.228 0.15-0.567t-0.158-0.575q-0.071-0.095-0.165-0.181-0.323-0.26-0.922-0.26h-1.245v3.356h0.685v-1.229zM23.25 25.411q0.189 0.276 0.189 0.804v0.165q-0.008 0.528-0.189 0.796-0.087 0.126-0.197 0.189-0.15 0.087-0.339 0.087-0.197 0-0.339-0.087-0.126-0.071-0.205-0.197-0.189-0.284-0.189-0.796v-0.165q0-0.528 0.189-0.796 0.079-0.118 0.197-0.189 0.142-0.087 0.339-0.087t0.339 0.087q0.118 0.071 0.205 0.189zM34.382 26.183h-0.559v-1.008h0.559q0.276 0 0.41 0.134 0.024 0.024 0.039 0.047 0.095 0.126 0.095 0.331 0 0.173-0.079 0.291-0.032 0.039-0.063 0.071l-0.008 0.008q-0.142 0.126-0.394 0.126zM38.637 26.231h-0.622v-1.056h0.638q0.205 0 0.339 0.102 0.032 0.024 0.063 0.055t0.055 0.071q0.087 0.134 0.087 0.323 0 0.197-0.087 0.315-0.024 0.032-0.055 0.055-0.142 0.134-0.418 0.134zM49.911 26.183h-0.559v-1.008h0.559q0.276 0 0.418 0.134l0.032 0.047q0.102 0.126 0.102 0.331 0 0.173-0.087 0.291-0.024 0.039-0.055 0.071-0.008 0-0.008 0.008-0.142 0.126-0.402 0.126z"></path>
</symbol>
<symbol id="yaco" viewBox="0 0 28 32">
<path d="M4.136 0l4.832 4.575-8.97-0.006v22.196h23.445v-8.486l4.827 4.57v-22.848h-24.135zM23.231 4.77v12.971l-13.702-12.971h13.702zM18.977 23.518h-15.269v-14.928h1.079v13.917h14.19v1.010zM10.942 30.997c-0.058 0.086-0.092 0.193-0.092 0.307 0 0.001 0 0.003 0 0.004v-0c0 0.207 0.072 0.374 0.217 0.503s0.34 0.192 0.583 0.192q0.272 0 0.488-0.11 0.072-0.038 0.138-0.087l0.138 0.163h0.474l-0.36-0.426q0.212-0.29 0.212-0.742h-0.355c0 0.165-0.034 0.314-0.102 0.449l-0.474-0.559 0.167-0.121c0.101-0.069 0.186-0.154 0.252-0.253l0.002-0.003c0.049-0.080 0.077-0.176 0.077-0.279 0-0.001 0-0.003 0-0.004v0q0-0.117-0.043-0.214t-0.129-0.175c-0.109-0.099-0.254-0.159-0.414-0.159-0.009 0-0.017 0-0.025 0.001l0.001-0c-0.197 0-0.354 0.057-0.471 0.168s-0.175 0.263-0.175 0.455c0 0.079 0.019 0.16 0.055 0.244 0.039 0.084 0.105 0.186 0.2 0.306-0.181 0.13-0.303 0.243-0.365 0.338zM15.598 31.784c0.168-0.147 0.265-0.352 0.29-0.612h-0.424c-0.023 0.174-0.076 0.3-0.16 0.375s-0.21 0.113-0.377 0.113c-0.183 0-0.322-0.070-0.417-0.209q-0.142-0.209-0.142-0.607v-0.217c0.003-0.262 0.053-0.459 0.152-0.594 0.1-0.136 0.243-0.203 0.428-0.203 0.159 0 0.28 0.039 0.362 0.117s0.134 0.205 0.155 0.381h0.424c-0.028-0.268-0.123-0.476-0.288-0.623s-0.383-0.221-0.653-0.221c-0.201 0-0.378 0.048-0.532 0.143-0.154 0.099-0.275 0.237-0.349 0.401l-0.002 0.006c-0.078 0.171-0.124 0.372-0.124 0.583 0 0.010 0 0.020 0 0.030l-0-0.002v0.229c0.003 0.226 0.046 0.423 0.126 0.594s0.196 0.302 0.343 0.395c0.15 0.092 0.322 0.138 0.517 0.138 0.279 0 0.503-0.072 0.672-0.219zM18.101 31.441c0.083-0.181 0.125-0.393 0.125-0.633v-0.136c0-0.007 0-0.016 0-0.025 0-0.218-0.047-0.426-0.132-0.613l0.004 0.009q-0.097-0.209-0.257-0.342-0.048-0.039-0.101-0.072c-0.154-0.097-0.331-0.145-0.531-0.145s-0.377 0.049-0.532 0.147q-0.041 0.026-0.079 0.056-0.174 0.138-0.279 0.363c-0.080 0.177-0.127 0.385-0.127 0.603 0 0.011 0 0.021 0 0.032l-0-0.002v0.138c0.001 0.234 0.043 0.441 0.128 0.621 0.085 0.18 0.206 0.319 0.361 0.416 0.156 0.097 0.333 0.145 0.532 0.145 0.201 0 0.379-0.048 0.532-0.145 0.154-0.098 0.274-0.237 0.357-0.418zM7.314 29.519l-0.564 1.162-0.564-1.162h-0.473l0.823 1.549v0.903h0.428v-0.903l0.821-1.549h-0.471zM8.023 31.97l0.199-0.571h0.95l0.2 0.571h0.445l-0.927-2.451h-0.383l-0.925 2.451h0.443zM11.609 30.453c-0.116-0.143-0.174-0.261-0.174-0.355 0-0.082 0.024-0.15 0.071-0.204 0.044-0.050 0.108-0.081 0.18-0.081 0.004 0 0.007 0 0.011 0l-0.001-0c0.003-0 0.006-0 0.009-0 0.068 0 0.129 0.026 0.175 0.069l-0-0c0.048 0.046 0.072 0.1 0.072 0.163 0 0.002 0 0.005 0 0.008 0 0.091-0.040 0.173-0.104 0.229l-0 0-0.052 0.043-0.187 0.128zM17.646 30.056c0.103 0.145 0.154 0.353 0.154 0.625v0.128c0 0.276-0.051 0.486-0.153 0.63-0.101 0.144-0.245 0.216-0.434 0.216-0.005 0-0.011 0-0.018 0-0.173 0-0.327-0.087-0.419-0.219l-0.001-0.002c-0.105-0.147-0.157-0.355-0.157-0.625v-0.141c0.002-0.263 0.055-0.468 0.158-0.611 0.092-0.132 0.243-0.218 0.415-0.218 0.006 0 0.012 0 0.019 0l-0.001-0c0.189 0 0.334 0.072 0.436 0.217zM8.696 30.039l0.355 1.017h-0.71l0.355-1.016zM12.048 31.539c-0.105 0.085-0.24 0.137-0.387 0.138h-0q-0.15 0-0.25-0.070-0.023-0.016-0.043-0.036c-0.068-0.067-0.11-0.16-0.11-0.262 0-0.005 0-0.010 0-0.014l-0 0.001c0-0.131 0.068-0.248 0.202-0.35l0.052-0.037 0.535 0.632z"></path>
</symbol>
<symbol id="linkedin" viewBox="0 0 32 32">
<path d="M31.984 32v-0.016h0.016v-11.728c0-5.744-1.248-10.16-7.952-10.16-3.232 0-5.392 1.76-6.272 3.44h-0.096v-2.912h-6.368v21.36h6.624v-10.576c0-2.784 0.528-5.472 3.984-5.472 3.392 0 3.44 3.184 3.44 5.648v10.416h6.624zM0.528 10.624h6.624v21.36h-6.624v-21.36zM3.84 0c-2.128 0-3.84 1.712-3.84 3.84 0 2.112 1.712 3.872 3.84 3.872 2.112 0 3.84-1.76 3.84-3.872 0-2.121-1.719-3.84-3.84-3.84v0z"></path>
</symbol>
<symbol id="instagram" viewBox="0 0 32 32">
<path d="M31.968 9.408c-0.080-1.712-0.352-2.88-0.752-3.888-0.4-1.072-1.024-2.032-1.856-2.848-0.8-0.8-1.76-1.44-2.832-1.84-1.008-0.384-2.176-0.672-3.872-0.736-1.712-0.080-2.256-0.096-6.608-0.096-4.336 0-4.88 0.016-6.592 0.080-1.696 0.080-2.864 0.352-3.888 0.752-1.072 0.4-2.032 1.024-2.832 1.84-0.816 0.816-1.44 1.776-1.84 2.832-0.4 1.024-0.672 2.192-0.752 3.888-0.080 1.712-0.096 2.256-0.096 6.608 0 4.336 0.016 4.88 0.096 6.592 0.080 1.696 0.352 2.864 0.736 3.888 0.416 1.072 1.040 2.032 1.856 2.832 0.8 0.816 1.776 1.44 2.832 1.84 1.024 0.4 2.176 0.672 3.888 0.752 1.696 0.064 2.24 0.080 6.592 0.080 4.336 0 4.88-0.016 6.592-0.080 1.696-0.080 2.864-0.352 3.888-0.752 2.151-0.851 3.821-2.521 4.653-4.617l0.019-0.055c0.4-1.024 0.672-2.192 0.752-3.888 0.064-1.712 0.096-2.256 0.096-6.592 0-4.352-0.016-4.896-0.080-6.592zM29.072 22.464c-0.064 1.568-0.32 2.4-0.544 2.976-0.544 1.392-1.648 2.496-3.040 3.040-0.56 0.208-1.408 0.48-2.96 0.544-1.696 0.080-2.208 0.096-6.464 0.096-4.272 0-4.784-0.016-6.464-0.096-1.568-0.064-2.416-0.336-2.976-0.544-0.688-0.256-1.328-0.672-1.84-1.2-0.509-0.507-0.912-1.121-1.172-1.805l-0.012-0.035c-0.224-0.56-0.496-1.408-0.56-2.976-0.080-1.68-0.096-2.192-0.096-6.464 0-4.256 0.016-4.768 0.096-6.464 0.064-1.552 0.336-2.4 0.56-2.96 0.256-0.688 0.656-1.328 1.2-1.84 0.512-0.528 1.136-0.944 1.824-1.2 0.576-0.208 1.424-0.48 2.976-0.544 1.68-0.080 2.192-0.096 6.464-0.096s4.784 0.016 6.464 0.096c1.568 0.064 2.4 0.336 2.976 0.544 0.688 0.256 1.312 0.672 1.824 1.2 0.544 0.512 0.944 1.152 1.2 1.84 0.224 0.56 0.48 1.408 0.544 2.96 0.080 1.696 0.096 2.208 0.096 6.464 0 4.272-0.016 4.784-0.096 6.464z"></path>
<path d="M16.048 7.776c-4.528 0-8.224 3.68-8.224 8.224 0 4.528 3.696 8.208 8.224 8.208 4.544 0 8.224-3.68 8.224-8.208 0-4.544-3.68-8.224-8.224-8.224zM16.048 21.328c-2.944 0-5.328-2.384-5.328-5.328s2.384-5.344 5.328-5.344 5.328 2.4 5.328 5.344c0 2.944-2.384 5.328-5.328 5.328zM26.512 7.456c0 1.056-0.848 1.92-1.92 1.92-1.056 0-1.92-0.864-1.92-1.92 0-1.072 0.864-1.92 1.92-1.92 1.072 0 1.92 0.848 1.92 1.92z"></path>
</symbol>
<symbol id="flag" viewBox="0 0 25 32">
<path d="M10.447 1.807h0.084c0.156 0 0.324 0.015 0.49 0.030 0.807 0.058 1.552 0.175 2.275 0.348l-0.095-0.019v-1.762c-0.652-0.172-1.42-0.3-2.208-0.357l-0.042-0.002c-0.254-0.020-0.571-0.035-0.889-0.043l-0.021-0h-0.263c-1.524 0.006-3.041 0.201-4.516 0.582-1.681 0.419-3.294 1.075-4.792 1.949v17.48c1.313-0.729 2.833-1.338 4.432-1.75l0.135-0.029c1.123-0.3 2.434-0.51 3.78-0.587l0.053-0.002h0.052c0.217-0.011 0.433-0.017 0.656-0.018v-1.791c-1.781 0.024-3.494 0.264-5.13 0.695l0.147-0.033c-0.603 0.157-1.185 0.326-1.732 0.513l-0.623 0.212v-13.63l0.266-0.128c1.891-0.918 4.097-1.513 6.427-1.649l0.047-0.002c0.008-0.001 0.018-0.001 0.028-0.001s0.019 0 0.029 0.001l-0.001-0c0.248-0.012 0.497-0.018 0.742-0.018h0.28c0.129 0.003 0.259 0.006 0.388 0.014zM13.633 3.608c0.356 0.028 0.77 0.044 1.188 0.044 0.006 0 0.012 0 0.018 0h-0.001c1.69-0.007 3.325-0.229 4.883-0.64l-0.135 0.030c1.734-0.443 3.254-1.052 4.667-1.832l-0.101 0.051v17.168c-1.38 0.819-2.976 1.488-4.666 1.921l-0.127 0.028c-1.354 0.363-2.909 0.574-4.512 0.581h-0.004c-0.032 0-0.070 0-0.108 0-1.178 0-2.321-0.148-3.413-0.425l0.095 0.021v-17.279c0.265 0.061 0.537 0.117 0.814 0.164 0.455 0.077 0.934 0.133 1.402 0.167zM22.371 3.741l-0.623 0.209c-0.376 0.138-0.954 0.315-1.539 0.474l-0.192 0.044c-1.551 0.415-3.333 0.657-5.17 0.664h-0.004c-0.406 0-0.78-0.011-1.141-0.034l-0.497-0.033v14.021l0.427 0.037c0.363 0.033 0.785 0.052 1.212 0.052 0.001 0 0.002 0 0.003 0h-0c1.451-0.006 2.854-0.198 4.191-0.554l-0.116 0.026c1.221-0.31 2.281-0.702 3.286-1.189l-0.102 0.045 0.267-0.128v-13.634z"></path>
<path d="M1.677 25.983c-0.086-0.092-0.197-0.166-0.314-0.215-0.123-0.049-0.246-0.074-0.375-0.068-0.142 0-0.277 0.025-0.4 0.074-0.117 0.049-0.228 0.117-0.314 0.209-0.085 0.088-0.153 0.192-0.201 0.307l-0.002 0.007c-0.049 0.123-0.068 0.252-0.068 0.382v2.339c-0.006 0.166 0.025 0.326 0.092 0.48 0.055 0.117 0.135 0.222 0.234 0.308 0.092 0.080 0.203 0.135 0.32 0.166 0.111 0.037 0.228 0.049 0.345 0.049 0.135 0.006 0.259-0.025 0.382-0.080 0.117-0.049 0.222-0.123 0.308-0.215s0.16-0.197 0.203-0.314c0.049-0.117 0.080-0.246 0.080-0.369v-0.265h-0.616v0.209c0.006 0.074-0.006 0.142-0.031 0.209-0.025 0.050-0.056 0.092-0.092 0.129l0-0c-0.036 0.031-0.079 0.054-0.127 0.067l-0.002 0.001c-0.037 0.012-0.080 0.025-0.123 0.025-0.008 0.001-0.018 0.001-0.028 0.001-0.048 0-0.093-0.009-0.134-0.027l0.002 0.001c-0.054-0.021-0.098-0.058-0.129-0.104l-0.001-0.001c-0.051-0.082-0.081-0.182-0.081-0.289 0-0.009 0-0.018 0.001-0.027l-0 0.001v-2.173c-0.006-0.123 0.018-0.24 0.074-0.351 0.061-0.087 0.16-0.143 0.273-0.143 0.010 0 0.020 0 0.030 0.001l-0.001-0c0.049 0 0.105 0.012 0.148 0.031 0.049 0.025 0.092 0.062 0.123 0.105 0.068 0.086 0.105 0.197 0.099 0.308v0.203h0.603v-0.234c0.006-0.142-0.018-0.283-0.074-0.412-0.043-0.123-0.111-0.234-0.203-0.326zM5.303 25.952c-0.191-0.16-0.437-0.252-0.689-0.252-0.129 0-0.252 0.018-0.369 0.062s-0.228 0.111-0.32 0.191c-0.099 0.092-0.185 0.203-0.234 0.332-0.062 0.142-0.092 0.295-0.092 0.449v2.241c-0.006 0.16 0.025 0.314 0.092 0.456 0.055 0.123 0.135 0.228 0.234 0.314 0.092 0.086 0.203 0.154 0.32 0.197s0.24 0.068 0.369 0.068c0.265-0.002 0.507-0.102 0.691-0.266l-0.001 0.001c0.098-0.086 0.178-0.191 0.234-0.314 0.062-0.142 0.092-0.295 0.086-0.456v-2.241c0-0.011 0.001-0.023 0.001-0.036 0-0.293-0.123-0.558-0.32-0.745l-0-0zM5.020 28.975c0.006 0.062 0 0.117-0.025 0.178-0.018 0.055-0.055 0.105-0.098 0.148-0.080 0.068-0.178 0.105-0.283 0.105s-0.209-0.037-0.289-0.105c-0.041-0.041-0.074-0.090-0.097-0.145l-0.001-0.003c-0.016-0.044-0.026-0.096-0.026-0.149 0-0.010 0-0.021 0.001-0.031l-0 0.001v-2.241c-0.006-0.062 0.006-0.117 0.025-0.178 0.025-0.055 0.055-0.105 0.098-0.148 0.080-0.068 0.185-0.105 0.289-0.105s0.203 0.037 0.283 0.105c0.043 0.043 0.080 0.092 0.098 0.148 0.025 0.062 0.031 0.117 0.025 0.178v2.241zM10.067 29.972v-4.235h-0.585l-0.769 2.241h-0.012l-0.776-2.241h-0.585v4.235h0.609v-2.579h0.006l0.597 1.828h0.302l0.597-1.828h0.012v2.579h0.603zM13.508 26.032c-0.092-0.105-0.209-0.185-0.339-0.234-0.142-0.043-0.289-0.068-0.443-0.062h-0.899v4.235h0.603v-1.656h0.314c0.185 0.012 0.376-0.031 0.542-0.111 0.142-0.080 0.252-0.191 0.332-0.326 0.074-0.111 0.117-0.24 0.142-0.369 0.025-0.16 0.031-0.32 0.031-0.48 0.006-0.203-0.012-0.412-0.062-0.609-0.037-0.148-0.117-0.277-0.222-0.388zM13.2 27.325c-0.006 0.074-0.025 0.154-0.055 0.222-0.037 0.062-0.092 0.117-0.16 0.148-0.086 0.037-0.185 0.055-0.283 0.055h-0.277v-1.447h0.314c0.092 0 0.185 0.018 0.271 0.055 0.062 0.037 0.111 0.092 0.142 0.154 0.031 0.080 0.049 0.16 0.055 0.24v0.283c0 0.099 0.006 0.197 0 0.289h-0.006zM16.371 25.737h-0.492l-0.936 4.235h0.603l0.178-0.911h0.825l0.178 0.911h0.603l-0.96-4.235zM15.817 28.489l0.295-1.539h0.012l0.295 1.539h-0.603zM20.273 28.292h-0.006l-0.917-2.555h-0.579v4.235h0.603v-2.548h0.012l0.923 2.548h0.572v-4.235h-0.609v2.555zM23.967 25.737l-0.486 1.68h-0.012l-0.486-1.68h-0.64l0.831 2.444v1.791h0.603v-1.791l0.831-2.444h-0.64zM-0.003 31.172h0.289v0.819h0.197v-0.819h0.289v-0.166h-0.776v0.166zM2.44 31.006l-0.382 0.985h0.209l0.080-0.228h0.394l0.086 0.228h0.215l-0.394-0.985h-0.209zM2.41 31.597l0.135-0.363 0.135 0.363h-0.271zM4.86 31.628h0.228v0.123c-0.068 0.055-0.148 0.086-0.234 0.086-0.037 0-0.080-0.006-0.117-0.025-0.037-0.015-0.068-0.038-0.092-0.067l-0-0c-0.046-0.073-0.074-0.162-0.074-0.257 0-0 0-0.001 0-0.001v0c0-0.222 0.098-0.332 0.289-0.332 0.049 0 0.098 0.012 0.135 0.037 0.043 0.031 0.074 0.074 0.086 0.123l0.191-0.037c-0.037-0.197-0.178-0.289-0.412-0.289-0.005-0-0.011-0-0.018-0-0.126 0-0.24 0.047-0.328 0.124l0.001-0c-0.049 0.049-0.092 0.111-0.117 0.178-0.025 0.062-0.031 0.135-0.025 0.203-0.006 0.135 0.037 0.265 0.123 0.369 0.049 0.049 0.105 0.086 0.172 0.111 0.062 0.025 0.135 0.037 0.203 0.031 0.154 0.006 0.302-0.049 0.419-0.154v-0.388h-0.431v0.166zM7.334 31.006h-0.203v0.985h0.689v-0.166h-0.486v-0.819z"></path>
<path d="M9.224 31.006h0.197v0.985h-0.197v-0.985z"></path>
<path d="M11.465 31.665l-0.4-0.659h-0.197v0.985h0.185v-0.646l0.4 0.646h0.197v-0.985h-0.185v0.659zM13.311 31.554h0.492v-0.166h-0.492v-0.215h0.529v-0.166h-0.726v0.985h0.745v-0.166h-0.548v-0.271zM17.793 31.394h-0.388v-0.388h-0.197v0.985h0.197v-0.431h0.388v0.431h0.197v-0.985h-0.197v0.388zM19.652 31.554h0.486v-0.166h-0.486v-0.215h0.529v-0.166h-0.733v0.985h0.751v-0.166h-0.548v-0.271zM22.169 31.554c0.172-0.025 0.259-0.117 0.259-0.271 0.002-0.010 0.002-0.021 0.002-0.032 0-0.033-0.008-0.065-0.021-0.092l0.001 0.001c-0.018-0.040-0.046-0.073-0.079-0.098l-0.001-0c-0.073-0.036-0.159-0.057-0.25-0.057-0.014 0-0.027 0-0.041 0.001l0.002-0h-0.412v0.985h0.197v-0.412h0.037c0.043-0.006 0.086 0.006 0.123 0.018 0.031 0.018 0.055 0.043 0.068 0.074l0.215 0.314h0.24l-0.123-0.191c-0.049-0.099-0.129-0.178-0.215-0.24zM21.966 31.419h-0.142v-0.246h0.154c0.068-0.006 0.135 0 0.203 0.025 0.012 0.012 0.025 0.025 0.031 0.043s0.012 0.037 0.012 0.055c-0.006 0.025-0.006 0.043-0.018 0.055-0.006 0.018-0.018 0.031-0.037 0.043-0.062 0.025-0.135 0.031-0.203 0.025zM24.065 31.554h0.492v-0.166h-0.492v-0.215h0.529v-0.166h-0.726v0.985h0.751v-0.166h-0.554v-0.271z"></path>
</symbol>
<symbol id="company" viewBox="0 0 34 32">
<path d="M5.222 31.393c0.016 0 0.023 0 0.039 0.008 0.008 0 0.016 0.008 0.031 0.016l0.163 0.163c-0.132 0.132-0.287 0.233-0.474 0.303-0.21 0.078-0.443 0.117-0.676 0.117-0.218 0-0.435-0.031-0.637-0.109-0.179-0.062-0.342-0.163-0.474-0.288-0.14-0.132-0.241-0.288-0.311-0.451-0.078-0.186-0.109-0.381-0.109-0.575s0.039-0.396 0.117-0.575c0.070-0.171 0.187-0.326 0.326-0.451 0.148-0.132 0.319-0.225 0.513-0.295 0.202-0.070 0.427-0.109 0.653-0.101 0.019-0.001 0.042-0.001 0.065-0.001 0.38 0 0.728 0.132 1.002 0.353l-0.003-0.002-0.148 0.179-0.031 0.031c-0.016 0.008-0.039 0.008-0.062 0.008-0.016 0-0.039-0.008-0.054-0.016l-0.078-0.047-0.109-0.062c-0.047-0.016-0.093-0.039-0.14-0.054-0.062-0.023-0.132-0.031-0.194-0.047-0.085-0.016-0.171-0.016-0.249-0.016-0.163-0.008-0.326 0.023-0.474 0.078-0.14 0.047-0.264 0.117-0.365 0.218-0.202 0.191-0.327 0.461-0.327 0.76 0 0.014 0 0.028 0.001 0.043l-0-0.002c-0.008 0.155 0.023 0.311 0.085 0.466 0.047 0.124 0.132 0.241 0.233 0.342 0.101 0.093 0.218 0.163 0.35 0.21 0.14 0.054 0.287 0.078 0.443 0.078 0.085 0 0.171-0.008 0.256-0.016 0.14-0.016 0.272-0.054 0.389-0.124 0.062-0.031 0.117-0.070 0.171-0.117 0.023-0.016 0.047-0.023 0.078-0.023zM10.117 30.577c0 0.194-0.039 0.389-0.117 0.575-0.070 0.163-0.179 0.311-0.319 0.443-0.14 0.124-0.311 0.225-0.497 0.288-0.42 0.14-0.878 0.14-1.29 0-0.186-0.062-0.357-0.163-0.497-0.288-0.14-0.132-0.249-0.288-0.326-0.451-0.148-0.373-0.148-0.777 0-1.15 0.078-0.163 0.186-0.319 0.326-0.451 0.14-0.124 0.311-0.218 0.497-0.28 0.412-0.14 0.87-0.14 1.29 0 0.187 0.070 0.357 0.163 0.497 0.295 0.14 0.124 0.249 0.28 0.319 0.443 0.078 0.179 0.117 0.381 0.117 0.575zM9.674 30.577c0-0.155-0.023-0.311-0.085-0.458-0.047-0.132-0.124-0.249-0.225-0.35-0.101-0.092-0.219-0.165-0.35-0.215l-0.008-0.003c-0.303-0.101-0.637-0.101-0.932 0-0.14 0.054-0.264 0.124-0.365 0.218-0.101 0.101-0.179 0.218-0.225 0.35-0.109 0.295-0.109 0.622 0 0.917 0.047 0.124 0.124 0.249 0.225 0.342s0.225 0.171 0.365 0.218c0.295 0.101 0.629 0.101 0.932 0 0.14-0.047 0.256-0.124 0.357-0.218 0.101-0.101 0.179-0.218 0.225-0.342 0.062-0.148 0.085-0.303 0.085-0.458zM13.458 31.059l0.039 0.101c0.023-0.031 0.031-0.070 0.054-0.101 0.016-0.031 0.031-0.070 0.054-0.101l1.080-1.709c0.023-0.031 0.039-0.047 0.062-0.054 0.031-0.008 0.062-0.008 0.085-0.008h0.326v2.782h-0.381v-2.23l-1.088 1.733c-0.016 0.031-0.039 0.047-0.070 0.062-0.023 0.016-0.054 0.023-0.093 0.023h-0.054c-0.039 0-0.070-0.008-0.093-0.023-0.031-0.016-0.054-0.031-0.070-0.062l-1.119-1.741v2.23h-0.365v-2.774h0.319c0.031 0 0.062 0 0.093 0.008 0.023 0.008 0.047 0.031 0.054 0.054l1.111 1.709c0.016 0.031 0.039 0.070 0.054 0.101zM17.53 30.919v1.041h-0.427v-2.774h0.948c0.179-0.008 0.357 0.016 0.528 0.062 0.14 0.031 0.264 0.093 0.373 0.171 0.172 0.144 0.28 0.358 0.28 0.598 0 0.011-0 0.022-0.001 0.033l0-0.002c0.008 0.117-0.023 0.241-0.078 0.35-0.052 0.113-0.128 0.208-0.223 0.278l-0.002 0.001c-0.109 0.085-0.241 0.148-0.373 0.186-0.171 0.047-0.342 0.070-0.513 0.062l-0.513-0.008zM17.53 30.623h0.513c0.109 0 0.225-0.016 0.326-0.047 0.085-0.023 0.171-0.062 0.241-0.117 0.059-0.051 0.106-0.113 0.139-0.183l0.001-0.003c0.039-0.070 0.054-0.148 0.054-0.233 0-0.078-0.008-0.155-0.047-0.225-0.034-0.075-0.084-0.138-0.146-0.186l-0.001-0.001c-0.148-0.098-0.33-0.156-0.526-0.156-0.014 0-0.029 0-0.043 0.001l0.002-0h-0.513v1.15zM23.226 31.968h-0.334c-0.039 0-0.070-0.008-0.093-0.031-0.024-0.015-0.043-0.036-0.054-0.061l-0-0.001-0.288-0.668h-1.453l-0.295 0.668c-0.008 0.023-0.031 0.047-0.054 0.062-0.023 0.023-0.062 0.031-0.093 0.031h-0.334l1.267-2.782h0.443l1.29 2.782zM21.128 30.934h1.197l-0.505-1.134c-0.034-0.071-0.065-0.156-0.090-0.244l-0.003-0.012-0.054 0.14c-0.016 0.047-0.031 0.085-0.047 0.117l-0.497 1.134zM25.052 29.194c0.031 0.016 0.047 0.031 0.070 0.054l1.849 2.098v-2.16h0.381v2.782h-0.21c-0.031 0-0.062-0.008-0.093-0.016-0.025-0.014-0.045-0.032-0.062-0.054l-0-0-1.857-2.098c0.008 0.039 0.008 0.070 0 0.101v2.067h-0.373v-2.782h0.225c0.023 0 0.047 0 0.070 0.008zM30.475 30.857v1.111h-0.427v-1.111l-1.173-1.671h0.381c0.039 0 0.070 0.008 0.093 0.023s0.039 0.039 0.054 0.062l0.738 1.080c0.031 0.047 0.054 0.085 0.078 0.132l0.047 0.117 0.054-0.124c0.023-0.039 0.047-0.085 0.078-0.124l0.723-1.088c0.016-0.023 0.031-0.039 0.054-0.062 0.023-0.016 0.054-0.023 0.093-0.023h0.381l-1.173 1.678zM13.248 24.516c0.179 0.023 0.365 0.039 0.559 0.054 2.86-1.111 5.276-2.929 6.947-5.229 1.678-2.3 2.541-4.973 2.471-7.693l-3.147-2.743c0.637 2.898 0.342 5.89-0.87 8.648-1.204 2.759-3.271 5.167-5.96 6.962z"></path>
<path d="M12.122 24.392l0.085 0.016c2.875-1.795 5.074-4.289 6.294-7.172 1.228-2.883 1.43-6.022 0.583-9.006l-4.483-3.901c1.811 3.209 2.541 6.791 2.106 10.342s-2.028 6.923-4.585 9.721zM27.336 14.857c-0.762 2.992-2.611 5.688-5.276 7.685-0.777 0.591-1.616 1.111-2.51 1.57 2.168-0.559 4.165-1.539 5.836-2.867 1.663-1.329 2.953-2.976 3.776-4.81l-1.826-1.577z"></path>
<path d="M26.621 14.422l-2.588-2.253c-0.047 2.564-0.886 5.074-2.432 7.265-1.546 2.183-3.73 3.978-6.341 5.183h0.016c0.575 0 1.158-0.031 1.733-0.093 2.44-0.863 4.592-2.238 6.271-4.002s2.828-3.862 3.341-6.1zM12.495 2.689l-3.093-2.689c-2.758 0.925-5.136 2.556-6.815 4.678s-2.58 4.631-2.588 7.203c0.008 2.844 1.111 5.602 3.124 7.84 2.020 2.246 4.841 3.831 8.019 4.522 2.836-2.999 4.491-6.714 4.74-10.591 0.241-3.87-0.948-7.716-3.388-10.964zM33.77 14.003c-0.016-3.372-1.562-6.605-4.313-8.99-2.743-2.385-6.465-3.73-10.35-3.745-1.795 0-3.574 0.288-5.245 0.855l18.929 16.442c0.645-1.453 0.979-2.999 0.979-4.561z"></path>
</symbol>
<symbol id="brand" viewBox="0 0 44 32">
<path d="M3.346 26.736c0.176 0.197 0.268 0.444 0.261 0.69 0.007 0.162-0.021 0.324-0.092 0.479-0.070 0.148-0.176 0.282-0.31 0.387-0.331 0.232-0.747 0.345-1.162 0.324h-2.043v-4.367h2c0.394-0.021 0.789 0.077 1.106 0.296 0.134 0.099 0.232 0.218 0.303 0.359 0.070 0.148 0.099 0.296 0.092 0.451 0.007 0.247-0.070 0.479-0.232 0.669-0.155 0.176-0.373 0.296-0.613 0.338 0.275 0.049 0.514 0.183 0.69 0.373zM0.951 26.081h0.852c0.197 0.014 0.387-0.042 0.542-0.148 0.070-0.049 0.12-0.12 0.148-0.19 0.035-0.077 0.049-0.155 0.042-0.232 0-0.077-0.007-0.162-0.042-0.232-0.031-0.079-0.079-0.145-0.14-0.197l-0.001-0.001c-0.162-0.106-0.359-0.162-0.563-0.148h-0.838v1.148zM2.43 27.75c0.125-0.090 0.206-0.235 0.206-0.4 0-0.016-0.001-0.031-0.002-0.046l0 0.002c0.001-0.012 0.002-0.026 0.002-0.041 0-0.073-0.019-0.141-0.052-0.201l0.001 0.002c-0.036-0.082-0.089-0.15-0.154-0.203l-0.001-0.001c-0.169-0.113-0.373-0.169-0.585-0.155h-0.894v1.197h0.909c0.204 0.007 0.409-0.042 0.571-0.155zM7.445 28.617l-1.12-1.704h-0.416v1.704h-0.958v-4.367h1.81c0.458-0.028 0.916 0.106 1.268 0.373 0.254 0.239 0.409 0.549 0.43 0.88 0.028 0.331-0.077 0.655-0.296 0.923-0.225 0.239-0.528 0.394-0.866 0.444l1.19 1.747h-1.042zM5.909 26.314h0.782c0.549 0 0.817-0.218 0.817-0.662 0.001-0.010 0.001-0.022 0.001-0.033 0-0.179-0.076-0.34-0.198-0.452l-0-0c-0.176-0.134-0.394-0.197-0.62-0.176h-0.789l0.007 1.324zM12.685 27.736h-1.916l-0.338 0.88h-1l1.754-4.318h1.085l1.747 4.318h-1.007l-0.324-0.88zM12.424 27.074l-0.697-1.838-0.697 1.838h1.395zM19.242 28.617h-0.951l-2.134-2.972v2.972h-0.951v-4.367h0.951l2.134 2.986v-2.986h0.951v4.367zM24.673 27.567c-0.197 0.331-0.5 0.599-0.859 0.775-0.416 0.19-0.88 0.282-1.338 0.275h-1.697v-4.367h1.697c0.458-0.007 0.923 0.085 1.338 0.268 0.359 0.169 0.662 0.437 0.859 0.761 0.186 0.33 0.296 0.724 0.296 1.145s-0.11 0.815-0.302 1.156l0.006-0.012zM23.581 27.469c0.275-0.296 0.423-0.662 0.423-1.042s-0.148-0.754-0.423-1.042c-0.324-0.261-0.754-0.394-1.19-0.373h-0.662v2.824h0.662c0.437 0.028 0.866-0.106 1.19-0.366zM13.277-0s12.284 4.24 12.023 10.389v10.389s-12.277-4.247-12.016-10.389l-0.007-10.389zM36.245 18.348c2.317-1.465 5.001-2.367 7.797-2.634v-3.254c-3.226 1.141-5.959 3.205-7.797 5.888z"></path>
<path d="M34.85 19.327c1.895-3.501 5.191-6.205 9.199-7.55v-9.375s-17.496 6.050-17.122 14.798v14.798s0.775-0.275 2-0.782c0-0.472 0-0.944 0.056-1.43 0.366-4.057 2.472-7.825 5.867-10.459z"></path>
<path d="M33.181 24.82c0.099-1.028 0.303-2.043 0.613-3.029-2.113 2.282-3.388 5.106-3.655 8.086-0.028 0.282-0.042 0.563-0.049 0.852 1-0.437 2.155-0.986 3.367-1.627-0.31-1.409-0.401-2.846-0.275-4.282zM33.878 24.877c-0.113 1.296-0.042 2.599 0.218 3.874 4.775-2.613 10.149-6.663 9.945-11.551v-0.423c-3.416 0.345-6.614 1.712-9.093 3.888-0.585 1.345-0.944 2.768-1.071 4.212z"></path>
</symbol>
<symbol id="twitter" viewBox="0 0 39 32">
<path d="M39.385 3.781c-1.477 0.65-3.033 1.063-4.667 1.28 1.674-1.012 2.933-2.565 3.548-4.413l0.017-0.057c-1.575 0.926-3.289 1.595-5.12 1.95-1.485-1.566-3.581-2.54-5.905-2.54-0.001 0-0.002 0-0.003 0h0c-4.459 0-8.074 3.615-8.074 8.074v0c0 0.63 0.059 1.241 0.197 1.831-6.715-0.315-12.662-3.545-16.64-8.448-0.692 1.167-1.101 2.573-1.101 4.075 0 2.787 1.409 5.244 3.554 6.699l0.028 0.018c-1.342-0.030-2.593-0.391-3.682-1.005l0.039 0.020v0.079c0 3.938 2.796 7.188 6.459 7.936-0.65 0.177-1.378 0.276-2.107 0.276-0.532 0-1.044-0.039-1.536-0.138 1.079 3.223 4.030 5.521 7.532 5.612l0.011 0c-2.727 2.149-6.212 3.446-9.999 3.446-0.002 0-0.003 0-0.004 0h0c-0.67 0-1.3-0.020-1.93-0.098 3.564 2.304 7.798 3.623 12.386 3.623 14.848 0 22.961-12.308 22.961-22.981 0-0.354 0-0.709-0.020-1.044 1.595-1.142 2.954-2.56 4.057-4.194z"></path>
</symbol>
<symbol id="facebook" viewBox="0 0 16 32">
<path d="M13.073 5.312h2.928v-5.088c-0.512-0.080-2.24-0.224-4.256-0.224-4.224 0-7.104 2.64-7.104 7.504v4.496h-4.64v5.68h4.64v14.32h5.696v-14.32h4.464l0.704-5.68h-5.168v-3.92c0-1.648 0.448-2.768 2.736-2.768z"></path>
</symbol>
<symbol id="burgermenu" viewBox="0 0 48 32">
<path d="M0 5.334v-5.334h48v5.334h-48zM0 18.666h48v-5.332h-48v5.332zM0 32h48v-5.334h-48v5.334z"></path>
</symbol>
</defs>
</svg>
